<?xml version="1.0" encoding="UTF-8"?>
<svg width="26px" height="24px" viewBox="0 0 26 24" version="1.1" xmlns="http://www.w3.org/2000/svg" xmlns:xlink="http://www.w3.org/1999/xlink">
    <!-- Generator: Sketch 52.6 (67491) - http://www.bohemiancoding.com/sketch -->
    <title>Group</title>
    <desc>Created with Sketch.</desc>
    <g id="Page-1" stroke="none" stroke-width="1" fill="none" fill-rule="evenodd">
        <g id="Group" transform="translate(1.000000, 1.000000)" fill="#FF6C5E" stroke="#FF6C5E" stroke-width="0.2">
            <path d="M4,9.40393333 L9.199,9.40393333 C9.422,9.40393333 9.5995,9.22197778 9.5995,8.99657778 C9.5995,8.77066667 9.422,8.58717778 9.199,8.58717778 L4,8.58717778 C3.7795,8.58717778 3.5995,8.77066667 3.5995,8.99657778 C3.5995,9.22197778 3.7795,9.40393333 4,9.40393333 Z" id="Fill-1"></path>
            <path d="M14.4005,11.0410222 L4,11.0410222 C3.7795,11.0410222 3.5995,11.2224667 3.5995,11.4483778 C3.5995,11.6737778 3.7795,11.8572667 4,11.8572667 L14.4005,11.8572667 C14.621,11.8572667 14.801,11.6737778 14.801,11.4483778 C14.801,11.2224667 14.621,11.0410222 14.4005,11.0410222 Z" id="Fill-2"></path>
            <path d="M14.4005,13.4928222 L4,13.4928222 C3.7795,13.4928222 3.5995,13.6763111 3.5995,13.9017111 C3.5995,14.1276222 3.7795,14.3111111 4,14.3111111 L14.4005,14.3111111 C14.621,14.3111111 14.801,14.1276222 14.801,13.9017111 C14.801,13.6763111 14.621,13.4928222 14.4005,13.4928222 Z" id="Fill-3"></path>
            <path d="M21.629,0.0281111111 L7.9725,-1.42108547e-14 C6.664,-1.42108547e-14 5.5995,1.08815556 5.5995,2.42368889 L5.5995,4.52026667 L2.371,4.5264 C1.0645,4.5264 0,5.61455556 0,6.95213333 L0,15.5950222 C0,16.9326 1.0645,18.0207556 2.371,18.0207556 L4.801,18.0207556 L4.801,22.1096444 C4.801,22.2772889 4.9025,22.4290889 5.0565,22.4909333 C5.1035,22.5088222 5.1525,22.5190444 5.199,22.5190444 C5.3105,22.5190444 5.418,22.471 5.496,22.3851333 L9.377,18.0187111 L16.0275,17.9906 C17.336,17.9906 18.4005,16.9044889 18.4005,15.5669111 L18.4005,15.5209111 L20.504,17.8868444 C20.582,17.9727111 20.6895,18.0207556 20.801,18.0207556 C20.8475,18.0207556 20.8965,18.0105333 20.9435,17.9926444 C21.0975,17.9328444 21.199,17.7810444 21.199,17.6113556 L21.199,13.5224667 L21.629,13.5224667 C22.9355,13.5224667 24,12.4343111 24,11.0987778 L24,2.45384444 C24,1.11626667 22.9355,0.0301555556 21.629,0.0281111111 Z M17.5995,15.5669111 C17.5995,16.4536889 16.8945,17.1743556 16.0275,17.1743556 L9.199,17.2019556 C9.086,17.2019556 8.9785,17.2520444 8.9045,17.3358667 L5.5995,21.0516444 L5.5995,17.6113556 C5.5995,17.3859556 5.422,17.2019556 5.199,17.2019556 L2.371,17.2019556 C1.506,17.2019556 0.801,16.4812889 0.801,15.5950222 L0.801,6.95213333 C0.801,6.06535556 1.506,5.34468889 2.373,5.34468889 L6,5.33702222 L16.0275,5.31504444 C16.8945,5.31504444 17.5995,6.03571111 17.5995,6.92197778 L17.5995,15.5669111 Z M23.199,11.0967333 C23.199,11.9835111 22.494,12.7041778 21.629,12.7041778 L20.801,12.7041778 C20.578,12.7041778 20.4005,12.8876667 20.4005,13.1130667 L20.4005,16.5533556 L18.4005,14.3049778 L18.4005,6.92197778 C18.4005,5.58644444 17.336,4.49828889 16.0275,4.49828889 L6.4005,4.51822222 L6.4005,2.42368889 C6.4005,1.53742222 7.1055,0.816755556 7.9705,0.816755556 L21.627,0.8464 L21.629,0.8464 C22.496,0.8464 23.201,1.56757778 23.201,2.45384444 L23.201,11.0967333 L23.199,11.0967333 Z" id="Fill-4"></path>
        </g>
    </g>
</svg>