<?xml version="1.0" encoding="utf-8"?>
<!-- Generator: Adobe Illustrator 23.0.3, SVG Export Plug-In . SVG Version: 6.00 Build 0)  -->
<svg version="1.1" id="Layer_1" xmlns="http://www.w3.org/2000/svg" xmlns:xlink="http://www.w3.org/1999/xlink" x="0px" y="0px"
	 viewBox="0 0 1080 1080" style="enable-background:new 0 0 1080 1080;" xml:space="preserve">
<style type="text/css">
	.st0{fill:url(#SVGID_1_);}
	.st1{fill:url(#SVGID_2_);}
	.st2{fill:url(#SVGID_3_);}
	.st3{fill:url(#SVGID_4_);}
	.st4{fill:url(#SVGID_5_);}
	.st5{fill:url(#SVGID_6_);}
	.st6{fill:url(#SVGID_7_);}
	.st7{fill:url(#SVGID_8_);}
	.st8{fill:url(#SVGID_9_);}
</style>
<g id="Layer_1-2">
	
		<linearGradient id="SVGID_1_" gradientUnits="userSpaceOnUse" x1="412.6649" y1="482.1361" x2="366.5707" y2="580.9694" gradientTransform="matrix(1 0 0 -1 0 1080)">
		<stop  offset="0" style="stop-color:#FF6E59"/>
		<stop  offset="1" style="stop-color:#FFB029"/>
	</linearGradient>
	<path class="st0" d="M434.34,528.69h-96.28c-1.46-0.01-2.66,1.17-2.67,2.63c-0.01,0.87,0.42,1.69,1.13,2.19l27.32,19.16
		c0.99,0.68,1.41,1.95,1,3.08l-11.73,31.94c-0.49,1.39,0.23,2.92,1.62,3.41c0.83,0.3,1.75,0.16,2.47-0.36l78.72-57.25
		c1.19-0.86,1.46-2.51,0.6-3.7C436.02,529.09,435.2,528.68,434.34,528.69z M411.48,541.43l-37.77,27.46
		c-1.19,0.87-2.86,0.61-3.73-0.58c-0.52-0.71-0.65-1.64-0.36-2.47l4.79-13.07c0.41-1.13,0-2.4-1-3.08l-11.75-8.24
		c-1.2-0.84-1.49-2.49-0.65-3.69c0.5-0.71,1.32-1.14,2.19-1.13h46.7c1.46-0.02,2.66,1.16,2.68,2.62
		C412.59,540.11,412.18,540.93,411.48,541.43z M378.23,526h20.87c1.46,0.01,2.65-1.16,2.66-2.62c0-0.29-0.04-0.57-0.13-0.84
		l-10.43-31.72c-0.46-1.39-1.97-2.15-3.36-1.69c-0.8,0.26-1.42,0.89-1.69,1.69l-10.45,31.77c-0.43,1.39,0.36,2.87,1.76,3.3
		C377.71,525.96,377.97,526,378.23,526z M411.16,559c-0.46-1.4-1.96-2.16-3.35-1.7c-0.27,0.09-0.52,0.22-0.75,0.38l-17,12.36
		c-1.18,0.85-1.44,2.5-0.59,3.67c0.16,0.23,0.36,0.42,0.59,0.59l27.46,19.78c1.18,0.87,2.84,0.61,3.7-0.57
		c0.5-0.69,0.65-1.57,0.39-2.38L411.16,559z"/>
	
		<linearGradient id="SVGID_2_" gradientUnits="userSpaceOnUse" x1="490.9778" y1="484.3983" x2="378.0779" y2="726.5283" gradientTransform="matrix(1 0 0 -1 0 1080)">
		<stop  offset="0" style="stop-color:#FFB029"/>
		<stop  offset="1" style="stop-color:#FF6E59"/>
	</linearGradient>
	<path class="st1" d="M472.47,547.11c-4.66-1.88-7-2.86-7-6.06s2.29-4.83,5.24-4.83c2.39-0.04,4.57,1.34,5.56,3.52l5.56-3.11
		c-1.72-3.76-6.06-6.38-11-6.38c-6.55,0-12.11,4.09-12.11,11.13c0,6,4,9.17,10.88,11.7c4.58,1.8,7,2.95,7,5.89
		c0,2.94-2.13,5.24-6.22,5.24c-3.09,0.11-5.94-1.67-7.2-4.5L457,562c1.64,4.58,7.53,8.18,13.75,8.18c7,0,12.44-4.58,12.44-11.37
		C483.19,551.86,477.46,549.15,472.47,547.11z"/>
	
		<linearGradient id="SVGID_3_" gradientUnits="userSpaceOnUse" x1="545.2896" y1="439.8498" x2="388.3696" y2="776.3698" gradientTransform="matrix(1 0 0 -1 0 1080)">
		<stop  offset="0" style="stop-color:#FFB029"/>
		<stop  offset="1" style="stop-color:#FF6E59"/>
	</linearGradient>
	<polygon class="st2" points="502.74,517.16 495.95,517.16 495.95,530.99 487.85,530.99 487.85,537.13 495.95,537.13 495.95,569.45 
		502.74,569.45 502.74,537.13 510.76,537.13 510.76,530.99 502.74,530.99 	"/>
	
		<linearGradient id="SVGID_4_" gradientUnits="userSpaceOnUse" x1="581.106" y1="437.0635" x2="489.886" y2="632.6935" gradientTransform="matrix(1 0 0 -1 0 1080)">
		<stop  offset="0" style="stop-color:#FFB029"/>
		<stop  offset="1" style="stop-color:#FF6E59"/>
	</linearGradient>
	<path class="st3" d="M547.83,536.47c-3.58-4.1-8.8-6.38-14.24-6.22c-10.31,0-19.23,8.92-19.23,20s8.92,20,19.23,20
		c5.44,0.15,10.67-2.14,14.24-6.25v5.48h6.71V531h-6.71V536.47z M534.5,563.64c-7.41,0.04-13.46-5.93-13.5-13.34
		c-0.04-7.41,5.93-13.46,13.34-13.5c7.41-0.04,13.46,5.93,13.5,13.34c0,0.03,0,0.05,0,0.08
		C547.86,557.61,541.89,563.62,534.5,563.64C534.5,563.64,534.5,563.64,534.5,563.64z"/>
	
		<linearGradient id="SVGID_5_" gradientUnits="userSpaceOnUse" x1="667.4786" y1="332.084" x2="509.7286" y2="670.374" gradientTransform="matrix(1 0 0 -1 0 1080)">
		<stop  offset="0" style="stop-color:#FFB029"/>
		<stop  offset="1" style="stop-color:#FF6E59"/>
	</linearGradient>
	<path class="st4" d="M571.08,537v-6h-6.71v38.46h6.71v-20.39c0-7,4.34-12.28,10.07-12.28c1.07,0.02,2.12,0.24,3.11,0.65l2.29-5.73
		c-1.68-0.99-3.61-1.5-5.56-1.47C576.39,530.25,573.12,532.87,571.08,537z"/>
	
		<linearGradient id="SVGID_6_" gradientUnits="userSpaceOnUse" x1="687.5262" y1="348.7876" x2="574.6162" y2="590.9075" gradientTransform="matrix(1 0 0 -1 0 1080)">
		<stop  offset="0" style="stop-color:#FFB029"/>
		<stop  offset="1" style="stop-color:#FF6E59"/>
	</linearGradient>
	<path class="st5" d="M605.77,547.11c-4.66-1.88-7-2.86-7-6.06s2.29-4.83,5.24-4.83c2.39-0.04,4.57,1.34,5.56,3.52l5.56-3.11
		c-1.72-3.76-6.06-6.38-11-6.38c-6.55,0-12.11,4.09-12.11,11.13c0,6,4,9.17,10.88,11.7c4.58,1.8,7,2.95,7,5.89
		c0,2.94-2.13,5.24-6.22,5.24c-3.09,0.11-5.94-1.67-7.2-4.5l-6.17,2.29c1.64,4.58,7.53,8.18,13.75,8.18c7,0,12.44-4.58,12.44-11.37
		C616.49,551.86,610.76,549.15,605.77,547.11z"/>
	
		<linearGradient id="SVGID_7_" gradientUnits="userSpaceOnUse" x1="724.5668" y1="352.5479" x2="633.2168" y2="548.4578" gradientTransform="matrix(1 0 0 -1 0 1080)">
		<stop  offset="0" style="stop-color:#FFB029"/>
		<stop  offset="1" style="stop-color:#FF6E59"/>
	</linearGradient>
	<path class="st6" d="M641.94,530.25c-11.05,0-20,8.95-20,20s8.95,20,20,20s20-8.95,20-20S652.99,530.25,641.94,530.25z
		 M641.94,563.64c-7.41,0.04-13.46-5.93-13.5-13.34c-0.04-7.41,5.93-13.46,13.34-13.5c7.41-0.04,13.46,5.93,13.5,13.34
		c0,0.03,0,0.05,0,0.08c0.05,7.36-5.88,13.37-13.24,13.42C642.01,563.64,641.97,563.64,641.94,563.64z"/>
	
		<linearGradient id="SVGID_8_" gradientUnits="userSpaceOnUse" x1="790.8265" y1="294.7684" x2="689.7365" y2="511.5684" gradientTransform="matrix(1 0 0 -1 0 1080)">
		<stop  offset="0" style="stop-color:#FFB029"/>
		<stop  offset="1" style="stop-color:#FF6E59"/>
	</linearGradient>
	<path class="st7" d="M684.66,530.25c-3.44-0.02-6.76,1.23-9.33,3.52V531h-6.71v38.46h6.71v-25.13c0.22-4.56,4.1-8.08,8.66-7.86
		c4.38,0.21,7.83,3.81,7.87,8.19v24.8h6.71v-25.3c0.01-7.68-6.21-13.9-13.89-13.91C684.67,530.25,684.67,530.25,684.66,530.25z"/>
	
		<linearGradient id="SVGID_9_" gradientUnits="userSpaceOnUse" x1="845.5435" y1="279.9424" x2="754.3235" y2="475.5623" gradientTransform="matrix(1 0 0 -1 0 1080)">
		<stop  offset="0" style="stop-color:#FFB029"/>
		<stop  offset="1" style="stop-color:#FF6E59"/>
	</linearGradient>
	<path class="st8" d="M739,531v5.48c-3.58-4.1-8.8-6.38-14.24-6.22c-10.31,0-19.23,8.92-19.23,20c0,11.08,8.92,20,19.23,20
		c5.44,0.15,10.67-2.15,14.24-6.26v5.48h6.71V531H739z M725.66,563.65c-7.41,0.04-13.46-5.93-13.5-13.34
		c-0.04-7.41,5.93-13.46,13.34-13.5s13.46,5.93,13.5,13.34c0,0.02,0,0.05,0,0.07c0.02,7.39-5.95,13.4-13.34,13.42c0,0,0,0,0,0
		V563.65z"/>
</g>
</svg>
